The BIG BANG (2011) NL SUBS 1080P 


The Movie __ The BIG BANG (2011) 1080p NL SUBS __



Verenigde Staten
Actie / Thriller

geregisseerd door Tony Krantz
met Antonio Banderas, Sienna Guillory en Sam Elliott

Ned Cruz is een privé-detective die op zoek is naar een vermiste stripper,
maar wanneer Ned er achter komt dat iedereen die hij ondervraagd heeft dood
gevonden is, wordt de zaak erg gecompliceerd. Zijn zoektocht brengt hem
verder naar de woestijn van New Mexico waar hij een paar vreemde figuren
ontmoet, zoals een geflipte Russische boxer, een paar ruziënde LAPD-agenten
en een oude excentrieke miljardair, die onder andere op zoek is naar zijn
mooie en veel jongere vrouw...

English

Storyline
A private detective is hired to find a missing stripper but the job turns complicated when everyone he questions ends up dead. From the mean streets of Los Angeles to the desolate desert of New Mexico, Cruz must contend with a brutal Russian Boxer, three brash LAPD detectives, an aged billionaire looking for the Big Bang, and the billionaire's stunningly gorgeous wife. The solution to the mystery will cost ten lives, net $30 million and just might explain - well - everything.



bron: DON
Beeld: 1080 (1920*1080)
Container: x264 (MKV)

MDb: http://www.imdb.com/title/tt1307873/

Ondertitels: NEDERLANDS, ENGELS
Audio: ENGLISH (DD5.1 & DTS) -- wij voegen altijd een ac3 spoor extra toe
Thanks S.R.T 

Subtitles..........: Vertaald door Twiga, Badgast, Apstra, Depositair en Heksje
Controle...........: Depositair en Twiga
Bewerking+Resync...: THC

 
http://www.moviemeter.nl/film/61304 
http://www.imdb.com/title/tt1307873/

TBS

MEDIA INFO

General
Complete name                    : The BIG BANG (2011) NL SUBS 1080P TBS\MOVIE\big.bang.2011.NLSUBS.1080p.x264.MULTI-SRT.mkv
Format                           : Matroska
File size                        : 11.8 GiB
Duration                         : 1h 41mn
Overall bit rate                 : 16.6 Mbps
Encoded date                     : UTC 2011-05-07 17:48:16
Writing application              : mkvmerge v2.3.0 ('Freak U') built on Sep  8 2008 18:32:16
Writing library                  : libebml v0.7.7 + libmatroska v0.8.1

Video
ID                               : 1
Format                           : AVC
Format/Info                      : Advanced Video Codec
Format profile                   : High@L4.1
Format settings, CABAC           : Yes
Format settings, ReFrames        : 4 frames
Format settings, GOP             : M=1, N=16
Muxing mode                      : Container profile=Unknown@4.1
Codec ID                         : V_MPEG4/ISO/AVC
Duration                         : 1h 41mn
Bit rate                         : 14.5 Mbps
Width                            : 1 920 pixels
Height                           : 1 080 pixels
Display aspect ratio             : 16:9
Frame rate                       : 23.976 fps
Color space                      : YUV
Chroma subsampling               : 4:2:0
Bit depth                        : 8 bits
Scan type                        : Progressive
Bits/(Pixel*Frame)               : 0.292
Stream size                      : 10.0 GiB (85%)
Writing library                  : x264 core 114 r1900 60ef1f8
Encoding settings                : cabac=1 / ref=4 / deblock=1:-3:-3 / analyse=0x3:0x113 / me=umh / subme=9 / psy=1 / psy_rd=0.75:0.00 / mixed_ref=1 / me_range=32 / chroma_me=1 / trellis=1 / 8x8dct=1 / cqm=0 / deadzone=21,11 / fast_pskip=0 / chroma_qp_offset=-2 / threads=18 / sliced_threads=0 / nr=0 / decimate=0 / interlaced=0 / constrained_intra=0 / bframes=6 / b_pyramid=2 / b_adapt=2 / b_bias=0 / direct=1 / weightb=1 / open_gop=0 / weightp=2 / keyint=250 / keyint_min=23 / scenecut=40 / intra_refresh=0 / rc_lookahead=40 / rc=2pass / mbtree=1 / bitrate=14500 / ratetol=1.0 / qcomp=0.60 / qpmin=0 / qpmax=69 / qpstep=4 / cplxblur=20.0 / qblur=0.5 / ip_ratio=1.40 / aq=1:0.70
Language                         : English

Audio #1
ID                               : 2
Format                           : DTS
Format/Info                      : Digital Theater Systems
Codec ID                         : A_DTS
Duration                         : 1h 41mn
Bit rate mode                    : Constant
Bit rate                         : 1 510 Kbps
Channel(s)                       : 6 channels
Channel positions                : Front: L C R, Side: L R, LFE
Sampling rate                    : 48.0 KHz
Bit depth                        : 24 bits
Video delay                      : 11ms
Stream size                      : 1.07 GiB (9%)
Title                            : English DTS
Language                         : English

Audio #2
ID                               : 3
Format                           : AC-3
Format/Info                      : Audio Coding 3
Mode extension                   : CM (complete main)
Codec ID                         : A_AC3
Duration                         : 1h 41mn
Bit rate mode                    : Constant
Bit rate                         : 640 Kbps
Channel(s)                       : 6 channels
Channel positions                : Front: L C R, Side: L R, LFE
Sampling rate                    : 48.0 KHz
Bit depth                        : 16 bits
Stream size                      : 463 MiB (4%)
Title                            : English DD5.1
Language                         : English

Text #1
ID                               : 4
Format                           : UTF-8
Codec ID                         : S_TEXT/UTF8
Codec ID/Info                    : UTF-8 Plain Text
Title                            : Nederlands SRT
Language                         : Dutch

Text #2
ID                               : 5
Format                           : UTF-8
Codec ID                         : S_TEXT/UTF8
Codec ID/Info                    : UTF-8 Plain Text
Title                            : Engels
Language                         : English

Menu
00:00:00.000                     : en:00:00:00.000
00:10:42.642                     : en:00:10:42.642
00:23:24.403                     : en:00:23:24.403
00:37:31.249                     : en:00:37:31.249
00:49:49.403                     : en:00:49:49.403
00:58:30.507                     : en:00:58:30.507
01:09:47.183                     : en:01:09:47.183
01:16:04.560                     : en:01:16:04.560
01:26:17.589                     : en:01:26:17.589
01:36:54.809                     : en:01:36:54.809

